<?xml version="1.0" standalone="no"?>
<!DOCTYPE svg PUBLIC "-//W3C//DTD SVG 20010904//EN"
 "http://www.w3.org/TR/2001/REC-SVG-20010904/DTD/svg10.dtd">
<svg version="1.0" xmlns="http://www.w3.org/2000/svg"
 width="177.000000pt" height="178.000000pt" viewBox="0 0 177.000000 178.000000"
 preserveAspectRatio="xMidYMid meet">

<g transform="translate(0.000000,178.000000) scale(0.100000,-0.100000)"
fill="#000000" stroke="none">
<path d="M1630 855 c0 -483 3 -735 10 -735 7 0 10 252 10 735 0 483 -3 735
-10 735 -7 0 -10 -252 -10 -735z"/>
<path d="M712 1157 c-6 -7 -15 -25 -21 -40 -12 -30 -32 -34 -96 -16 -22 6 -52
12 -66 13 -23 2 -26 -2 -28 -38 -1 -22 -4 -43 -7 -46 -3 -3 -32 -5 -64 -5 -33
0 -56 -4 -52 -9 3 -5 -2 -7 -11 -3 -10 3 -17 2 -17 -4 0 -6 -5 -7 -12 -3 -6 4
-8 3 -4 -4 3 -5 2 -12 -4 -14 -5 -1 -6 -14 -3 -28 l7 -25 6 25 c4 18 15 26 44
32 22 5 40 7 42 5 2 -1 -17 -67 -42 -145 -24 -79 -44 -146 -44 -148 0 -3 12
-4 27 -2 26 3 30 11 62 108 l34 105 18 -85 c10 -47 18 -88 19 -92 0 -5 -15 -8
-34 -8 -21 0 -36 -6 -40 -15 -4 -12 7 -15 68 -15 l73 0 -37 155 c-20 85 -34
158 -29 162 4 4 9 19 11 33 3 24 5 25 85 25 77 0 82 2 103 28 30 37 68 35 214
-13 65 -21 115 -35 110 -30 -21 20 -227 90 -265 90 -24 0 -38 4 -34 10 9 14
-1 12 -13 -3z"/>
<path d="M757 984 c-16 -16 -7 -44 14 -44 15 0 20 5 17 22 -3 22 -19 33 -31
22z"/>
<path d="M1303 973 c-10 -4 -13 -40 -13 -139 l0 -134 25 0 25 0 0 134 c0 135
-4 150 -37 139z"/>
<path d="M1350 835 l0 -135 25 0 25 0 0 135 0 135 -25 0 -25 0 0 -135z"/>
<path d="M593 903 c-8 -3 -13 -25 -13 -58 0 -58 7 -65 67 -65 30 0 34 -3 31
-22 -2 -19 -10 -24 -45 -26 -25 -2 -43 -9 -47 -18 -5 -12 6 -14 67 -12 l72 3
0 55 0 55 -47 3 c-43 3 -48 5 -48 28 0 22 4 24 44 24 40 0 56 11 56 36 0 6
-122 4 -137 -3z"/>
<path d="M747 904 c-4 -4 -7 -52 -7 -106 l0 -98 30 0 31 0 -3 103 c-3 94 -5
102 -23 105 -12 2 -24 0 -28 -4z"/>
<path d="M836 894 c-9 -24 -9 -24 34 -24 33 0 40 -3 40 -19 0 -17 -8 -20 -47
-23 l-48 -3 0 -60 0 -60 70 0 70 0 3 94 c3 107 1 111 -69 111 -34 0 -49 -5
-53 -16z m72 -131 c-2 -20 -9 -28 -23 -28 -14 0 -21 8 -23 28 -3 23 0 27 23
27 23 0 26 -4 23 -27z"/>
<path d="M982 898 c-13 -13 -17 -153 -6 -182 9 -22 119 -23 128 -1 4 12 -3 15
-34 15 l-40 0 0 70 0 70 34 0 c29 0 46 13 46 36 0 10 -117 3 -128 -8z"/>
<path d="M1131 896 c-8 -9 -11 -46 -9 -103 l3 -88 61 -3 c48 -2 63 0 67 13 5
12 -2 15 -33 15 -33 0 -40 3 -40 19 0 17 8 20 48 23 l47 3 3 47 c5 74 -8 88
-77 88 -38 0 -63 -5 -70 -14z m89 -56 c0 -23 -4 -30 -20 -30 -16 0 -20 7 -20
30 0 23 4 30 20 30 16 0 20 -7 20 -30z"/>
</g>
</svg>
