<?xml version="1.0" standalone="no"?>
<!DOCTYPE svg PUBLIC "-//W3C//DTD SVG 20010904//EN"
 "http://www.w3.org/TR/2001/REC-SVG-20010904/DTD/svg10.dtd">
<svg version="1.0" xmlns="http://www.w3.org/2000/svg"
 width="214.000000pt" height="212.000000pt" viewBox="0 0 214.000000 212.000000"
 preserveAspectRatio="xMidYMid meet">

<g transform="translate(0.000000,212.000000) scale(0.100000,-0.100000)"
fill="#000000" stroke="none">
<path d="M1515 1864 c-96 -30 -160 -120 -153 -218 3 -53 3 -53 -76 -149 -80
-97 -97 -108 -137 -87 -28 16 -24 26 29 79 72 69 119 209 76 225 -9 3 -35 1
-57 -5 -23 -6 -105 -15 -182 -20 -175 -11 -198 -13 -215 -24 -8 -5 -11 -4 -7
2 3 5 0 10 -6 10 -21 0 -19 -53 4 -101 18 -40 57 -82 129 -140 23 -18 23 -19
4 -33 -17 -13 -15 -14 21 -10 22 3 55 -2 74 -9 18 -8 38 -11 44 -7 7 4 8 0 4
-11 -6 -14 -3 -17 8 -12 9 3 14 2 10 -3 -3 -5 0 -11 6 -13 8 -3 7 -12 -6 -31
-11 -17 -13 -27 -6 -27 7 0 9 -5 6 -10 -4 -6 -10 -8 -15 -5 -9 6 -24 -13 -25
-30 0 -23 -53 -76 -83 -84 -39 -12 -45 -4 -49 67 -4 59 -18 95 -36 89 -6 -2
-25 -39 -43 -83 l-32 -79 32 -17 c20 -11 54 -17 97 -18 99 0 219 -12 219 -21
0 -13 -43 -22 -103 -20 -55 2 -58 0 -55 -21 2 -13 11 -35 21 -50 56 -90 58
-95 25 -74 -16 10 -40 13 -78 10 -115 -10 -114 -10 -125 14 -5 12 -13 22 -18
22 -4 0 -6 4 -3 9 3 5 -1 14 -9 21 -8 7 -15 18 -15 25 0 15 -59 45 -89 45 -24
0 -27 -17 -7 -42 9 -12 27 -18 52 -18 35 0 41 -3 52 -32 11 -30 10 -34 -19
-64 -28 -28 -38 -32 -99 -36 -54 -3 -76 -9 -107 -31 -62 -43 -133 -191 -105
-219 9 -9 22 -3 55 28 103 98 132 111 183 78 14 -10 32 -30 40 -46 26 -51 1
-91 -98 -159 -32 -22 -58 -44 -58 -49 0 -28 104 -22 179 11 24 10 45 19 46 19
1 0 5 -24 9 -52 12 -93 18 -118 30 -118 6 0 28 -5 49 -11 28 -8 37 -15 37 -32
0 -31 -31 -48 -68 -37 -17 4 -32 6 -35 4 -2 -3 -16 0 -30 5 -25 10 -27 8 -35
-22 -15 -56 -13 -56 343 -43 105 4 196 9 203 11 8 3 12 16 10 32 -3 28 -4 28
-66 25 -56 -4 -61 -2 -55 14 4 12 3 15 -5 10 -16 -10 -15 9 1 22 6 6 23 13 37
17 23 5 28 17 48 93 29 111 29 140 0 144 -11 2 -22 10 -23 18 -2 8 -8 47 -14
86 -6 40 -7 83 -3 100 5 16 3 81 -4 149 -16 149 -17 222 -4 230 6 4 31 -10 55
-30 56 -45 96 -60 124 -46 28 16 37 36 46 104 3 32 20 86 36 120 16 34 29 69
28 77 0 11 -2 11 -6 2 -3 -7 -17 -19 -31 -26 -23 -12 -29 -12 -39 0 -7 7 -13
18 -13 24 0 7 -9 5 -22 -4 -29 -21 -92 -20 -112 0 -9 8 -16 28 -16 43 0 32 40
81 67 81 9 0 43 -26 75 -57 43 -43 61 -54 69 -46 6 6 18 9 26 6 11 -5 14 1 11
23 -3 27 -1 29 43 35 88 13 133 49 173 142 24 53 35 117 20 117 -3 0 -29 -21
-58 -46 -103 -94 -137 -103 -185 -49 -56 64 -35 117 75 190 30 20 53 42 51 48
-5 18 -86 18 -142 1z m-278 -1026 c-3 -8 -6 -5 -6 6 -1 11 2 17 5 13 3 -3 4
-12 1 -19z m-177 -80 c53 -123 59 -151 53 -255 -4 -73 -11 -105 -24 -125 -25
-34 -24 -47 6 -82 14 -16 24 -30 23 -31 -2 -1 -23 -5 -48 -9 -45 -6 -46 -6
-58 27 -8 23 -10 96 -6 257 7 298 12 316 54 218z"/>
</g>
</svg>
